{"accessors":[{"bufferView":0,"componentType":5126,"count":227370,"max":[25.08819007873535,402.0787353515625,24.958707809448242],"min":[-25.08819007873535,391.6785888671875,-24.958707809448242],"type":"VEC3"},{"bufferView":1,"componentType":5126,"count":227370,"type":"VEC3"},{"bufferView":2,"componentType":5126,"count":227370,"type":"VEC2"},{"bufferView":3,"componentType":5125,"count":227370,"type":"SCALAR"}],"asset":{"generator":"Luxion KeyShot","version":"2.0"},"bufferViews":[{"buffer":0,"byteLength":2728440,"byteOffset":0,"byteStride":12},{"buffer":0,"byteLength":2728440,"byteOffset":2728440,"byteStride":12},{"buffer":0,"byteLength":1818960,"byteOffset":5456880,"byteStride":8},{"buffer":0,"byteLength":909480,"byteOffset":7275840}],"buffers":[{"byteLength":8185320,"uri":"./Bottle_Cap_resources/Bottle_Cap.bin"}],"cameras":[{"name":"active","perspective":{"aspectRatio":1.0,"yfov":0.17951583275702573,"zfar":8329.677734375,"znear":0.0010000000474974513},"type":"perspective"}],"images":[{"uri":"./Bottle_Cap_resources/bottle_cap_color_128_128_128_163_occlusion.png"}],"materials":[{"doubleSided":true,"occlusionTexture":{"index":0},"pbrMetallicRoughness":{"baseColorFactor":[0.31477832794189453,0.35761627554893494,0.38238218426704407,1.0],"metallicFactor":0.8139528632164001,"roughnessFactor":0.45404326915740967}}],"meshes":[{"name":"bottle_cap:color:128:128:128-mesh","primitives":[{"attributes":{"NORMAL":1,"POSITION":0,"TEXCOORD_0":2},"indices":3,"material":0,"mode":4}]}],"nodes":[{"camera":0,"matrix":[0.9539412577512039,-7.464601381457214e-09,0.29999350308151307,0.0,0.1483307128598227,0.8692081596215901,-0.47167281573391934,0.0,-0.26075679063796997,0.49444639682769775,0.8291735053062439,0.0,-747.2544555664063,1779.9085693359375,2369.267822265625,1.0],"name":"active"},{"mesh":0,"name":"bottle_cap:color:128:128:128"},{"children":[1],"matrix":[1.0,0.0,0.0,0.0,0.0,1.0,0.0,0.0,0.0,0.0,1.0,0.0,0.0,-4.316989898681641,0.0,1.0],"name":"Bottle cap"},{"children":[2],"name":"Default"},{"children":[3],"matrix":[0.001,0.0,0.0,0.0,0.0,0.001,0.0,0.0,0.0,0.0,0.001,0.0,0.0,0.0,0.0,1.0],"name":"lux_root"}],"samplers":[{"magFilter":9729,"minFilter":9987,"wrapS":10497,"wrapT":10497}],"scenes":[{"nodes":[0,4]}],"textures":[{"sampler":0,"source":0}]}   