{
    "asset" : {
        "copyright" : "Jufry A.",
        "generator" : "Khronos glTF Blender I/O v1.4.40",
        "version" : "2.0"
    },
    "scene" : 0,
    "scenes" : [
        {
            "name" : "Scene",
            "nodes" : [
                0,
                1,
                2,
                3
            ]
        }
    ],
    "nodes" : [
        {
            "mesh" : 0,
            "name" : "Cylinder",
            "translation" : [
                0,
                1.6877535581588745,
                0
            ]
        },
        {
            "mesh" : 1,
            "name" : "Plane",
            "translation" : [
                0,
                3.0722153186798096,
                0
            ]
        },
        {
            "mesh" : 2,
            "name" : "Cylinder.002",
            "rotation" : [
                0.6090345978736877,
                0,
                0,
                0.793143630027771
            ],
            "translation" : [
                0,
                2.2208235263824463,
                2.098864793777466
            ]
        },
        {
            "mesh" : 3,
            "name" : "Cube",
            "translation" : [
                0,
                2.4304327964782715,
                2.0796608924865723
            ]
        }
    ],
    "materials" : [
        {
            "doubleSided" : true,
            "name" : "Alum",
            "pbrMetallicRoughness" : {
                "baseColorTexture" : {
                    "index" : 0,
                    "texCoord" : 0
                },
                "metallicFactor" : 0.5595238208770752,
                "roughnessFactor" : 0.16969698667526245
            }
        }
    ],
    "meshes" : [
        {
            "name" : "Cylinder.001",
            "primitives" : [
                {
                    "attributes" : {
                        "POSITION" : 0,
                        "NORMAL" : 1,
                        "TEXCOORD_0" : 2
                    },
                    "indices" : 3,
                    "material" : 0
                }
            ]
        },
        {
            "name" : "Plane.001",
            "primitives" : [
                {
                    "attributes" : {
                        "POSITION" : 4,
                        "NORMAL" : 5,
                        "TEXCOORD_0" : 6
                    },
                    "indices" : 7,
                    "material" : 0
                }
            ]
        },
        {
            "name" : "Cylinder.004",
            "primitives" : [
                {
                    "attributes" : {
                        "POSITION" : 8,
                        "NORMAL" : 9,
                        "TEXCOORD_0" : 10
                    },
                    "indices" : 11,
                    "material" : 0
                }
            ]
        },
        {
            "name" : "Cube.001",
            "primitives" : [
                {
                    "attributes" : {
                        "POSITION" : 12,
                        "NORMAL" : 13,
                        "TEXCOORD_0" : 14
                    },
                    "indices" : 15,
                    "material" : 0
                }
            ]
        }
    ],
    "textures" : [
        {
            "sampler" : 0,
            "source" : 0
        }
    ],
    "images" : [
        {
            "bufferView" : 4,
            "mimeType" : "image/jpeg",
            "name" : "7_brushed metal silver texture-seamless"
        }
    ],
    "accessors" : [
        {
            "bufferView" : 0,
            "componentType" : 5126,
            "count" : 856,
            "max" : [
                1.9780911207199097,
                0.96431964635849,
                1.9780913591384888
            ],
            "min" : [
                -1.9780911207199097,
                -1.6506327390670776,
                -1.9780913591384888
            ],
            "type" : "VEC3"
        },
        {
            "bufferView" : 1,
            "componentType" : 5126,
            "count" : 856,
            "type" : "VEC3"
        },
        {
            "bufferView" : 2,
            "componentType" : 5126,
            "count" : 856,
            "type" : "VEC2"
        },
        {
            "bufferView" : 3,
            "componentType" : 5123,
            "count" : 4596,
            "type" : "SCALAR"
        },
        {
            "bufferView" : 5,
            "componentType" : 5126,
            "count" : 1078,
            "max" : [
                1.7802542448043823,
                0.301456481218338,
                1.774914264678955
            ],
            "min" : [
                -1.7695740461349487,
                -0.43034806847572327,
                -1.774914264678955
            ],
            "type" : "VEC3"
        },
        {
            "bufferView" : 6,
            "componentType" : 5126,
            "count" : 1078,
            "type" : "VEC3"
        },
        {
            "bufferView" : 7,
            "componentType" : 5126,
            "count" : 1078,
            "type" : "VEC2"
        },
        {
            "bufferView" : 8,
            "componentType" : 5123,
            "count" : 6600,
            "type" : "SCALAR"
        },
        {
            "bufferView" : 9,
            "componentType" : 5126,
            "count" : 334,
            "max" : [
                0.22923719882965088,
                0.32526111602783203,
                0.22923721373081207
            ],
            "min" : [
                -0.22923719882965088,
                -4.381112098693848,
                -1.3896278142929077
            ],
            "type" : "VEC3"
        },
        {
            "bufferView" : 10,
            "componentType" : 5126,
            "count" : 334,
            "type" : "VEC3"
        },
        {
            "bufferView" : 11,
            "componentType" : 5126,
            "count" : 334,
            "type" : "VEC2"
        },
        {
            "bufferView" : 12,
            "componentType" : 5123,
            "count" : 1560,
            "type" : "SCALAR"
        },
        {
            "bufferView" : 13,
            "componentType" : 5126,
            "count" : 227,
            "max" : [
                0.16836223006248474,
                2.245311975479126,
                0.003061931114643812
            ],
            "min" : [
                -0.15306077897548676,
                -0.4100308418273926,
                -4.162383556365967
            ],
            "type" : "VEC3"
        },
        {
            "bufferView" : 14,
            "componentType" : 5126,
            "count" : 227,
            "type" : "VEC3"
        },
        {
            "bufferView" : 15,
            "componentType" : 5126,
            "count" : 227,
            "type" : "VEC2"
        },
        {
            "bufferView" : 16,
            "componentType" : 5123,
            "count" : 1062,
            "type" : "SCALAR"
        }
    ],
    "bufferViews" : [
        {
            "buffer" : 0,
            "byteLength" : 10272,
            "byteOffset" : 0
        },
        {
            "buffer" : 0,
            "byteLength" : 10272,
            "byteOffset" : 10272
        },
        {
            "buffer" : 0,
            "byteLength" : 6848,
            "byteOffset" : 20544
        },
        {
            "buffer" : 0,
            "byteLength" : 9192,
            "byteOffset" : 27392
        },
        {
            "buffer" : 0,
            "byteLength" : 539416,
            "byteOffset" : 36584
        },
        {
            "buffer" : 0,
            "byteLength" : 12936,
            "byteOffset" : 576000
        },
        {
            "buffer" : 0,
            "byteLength" : 12936,
            "byteOffset" : 588936
        },
        {
            "buffer" : 0,
            "byteLength" : 8624,
            "byteOffset" : 601872
        },
        {
            "buffer" : 0,
            "byteLength" : 13200,
            "byteOffset" : 610496
        },
        {
            "buffer" : 0,
            "byteLength" : 4008,
            "byteOffset" : 623696
        },
        {
            "buffer" : 0,
            "byteLength" : 4008,
            "byteOffset" : 627704
        },
        {
            "buffer" : 0,
            "byteLength" : 2672,
            "byteOffset" : 631712
        },
        {
            "buffer" : 0,
            "byteLength" : 3120,
            "byteOffset" : 634384
        },
        {
            "buffer" : 0,
            "byteLength" : 2724,
            "byteOffset" : 637504
        },
        {
            "buffer" : 0,
            "byteLength" : 2724,
            "byteOffset" : 640228
        },
        {
            "buffer" : 0,
            "byteLength" : 1816,
            "byteOffset" : 642952
        },
        {
            "buffer" : 0,
            "byteLength" : 2124,
            "byteOffset" : 644768
        }
    ],
    "samplers" : [
        {
            "magFilter" : 9729,
            "minFilter" : 9986
        }
    ],
    "buffers" : [
        {
            "byteLength" : 646892,
            "uri" : "data:application/octet-stream;base64,"
        }
    ]
}
