{
    "asset" : {
        "copyright" : "AlbertGregl",
        "generator" : "Khronos glTF Blender I/O v1.7.33",
        "version" : "2.0"
    },
    "scene" : 0,
    "scenes" : [
        {
            "name" : "Scene",
            "nodes" : [
                0
            ]
        }
    ],
    "nodes" : [
        {
            "mesh" : 0,
            "name" : "sun_gate",
            "rotation" : [
                0.7071068286895752,
                0,
                0,
                0.7071067094802856
            ]
        }
    ],
    "materials" : [
        {
            "doubleSided" : true,
            "name" : "SunGate",
            "normalTexture" : {
                "index" : 0
            },
            "pbrMetallicRoughness" : {
                "baseColorTexture" : {
                    "index" : 1
                },
                "metallicRoughnessTexture" : {
                    "index" : 2
                }
            }
        }
    ],
    "meshes" : [
        {
            "name" : "sun_gate",
            "primitives" : [
                {
                    "attributes" : {
                        "POSITION" : 0,
                        "NORMAL" : 1,
                        "TEXCOORD_0" : 2
                    },
                    "indices" : 3,
                    "material" : 0
                }
            ]
        }
    ],
    "textures" : [
        {
            "sampler" : 0,
            "source" : 0
        },
        {
            "sampler" : 0,
            "source" : 1
        },
        {
            "sampler" : 0,
            "source" : 2
        }
    ],
    "images" : [
        {
            "mimeType" : "image/png",
            "name" : "SunGate_normal",
            "uri" : "SunGate_normal.png"
        },
        {
            "mimeType" : "image/png",
            "name" : "SunGate_albedo",
            "uri" : "SunGate_albedo.png"
        },
        {
            "mimeType" : "image/png",
            "name" : "SunGate_mixmap",
            "uri" : "SunGate_mixmap.png"
        }
    ],
    "accessors" : [
        {
            "bufferView" : 0,
            "componentType" : 5126,
            "count" : 18838,
            "max" : [
                0.08101531118154526,
                2.010068893432617,
                0.007493865676224232
            ],
            "min" : [
                -0.7700746059417725,
                -2.025446653366089,
                -2.8683292865753174
            ],
            "type" : "VEC3"
        },
        {
            "bufferView" : 1,
            "componentType" : 5126,
            "count" : 18838,
            "type" : "VEC3"
        },
        {
            "bufferView" : 2,
            "componentType" : 5126,
            "count" : 18838,
            "type" : "VEC2"
        },
        {
            "bufferView" : 3,
            "componentType" : 5123,
            "count" : 110832,
            "type" : "SCALAR"
        }
    ],
    "bufferViews" : [
        {
            "buffer" : 0,
            "byteLength" : 226056,
            "byteOffset" : 0
        },
        {
            "buffer" : 0,
            "byteLength" : 226056,
            "byteOffset" : 226056
        },
        {
            "buffer" : 0,
            "byteLength" : 150704,
            "byteOffset" : 452112
        },
        {
            "buffer" : 0,
            "byteLength" : 221664,
            "byteOffset" : 602816
        }
    ],
    "samplers" : [
        {
            "magFilter" : 9729,
            "minFilter" : 9987
        }
    ],
    "buffers" : [
        {
            "byteLength" : 824480,
            "uri" : "SunGate.bin"
        }
    ]
}
